<mxfile host="app.diagrams.net" modified="2023-12-15T06:28:59.021Z" agent="Mozilla/5.0 (Windows NT 10.0; Win64; x64) AppleWebKit/537.36 (KHTML, like Gecko) Chrome/119.0.0.0 Safari/537.36" version="22.1.9" etag="HGIi7QeZttD5WtJcm6gS" type="github">
  <diagram name="Page-1" id="FtpPWTJ-so2fhIdMMme3">
    <mxGraphModel>
      <root>
        <mxCell id="0" />
        <mxCell id="1" parent="0" />
      </root>
    </mxGraphModel>
  </diagram>
</mxfile>
